<?xml version="1.0" encoding="UTF-8"?>
<svg version="1.1" xmlns="http://www.w3.org/2000/svg" width="848" height="437">
<path d="M0 0 C4.95 0 9.9 0 15 0 C15.21011719 1.08667969 15.42023438 2.17335938 15.63671875 3.29296875 C19.03528814 19.55061497 24.6968149 34.94667717 30.32565308 50.53005981 C32.44916926 56.42190126 34.50247269 62.33532718 36.52734375 68.26171875 C37.38717892 70.76404063 38.24782711 73.26608161 39.10864258 75.76806641 C39.65393221 77.35976604 40.19569985 78.95267736 40.73364258 80.546875 C43.43403606 88.53847671 46.12860401 96.06317983 50.90063477 103.1105957 C52 105 52 105 52 108 C48.04 108 44.08 108 40 108 C38.29357181 103.00185075 36.68530252 97.99517749 35.203125 92.92578125 C30.31391312 72.02292031 30.31391312 72.02292031 17.75 55.6875 C10.57250013 52.05568507 2.85241542 51.86322168 -4.8125 54.125 C-13.11415122 60.0203755 -16.21191583 74.01036998 -19.3125 83.125 C-19.65015381 84.11338867 -19.98780762 85.10177734 -20.33569336 86.12011719 C-22.35037986 92.27885021 -23.66240124 98.2661605 -24.49682617 104.69482422 C-24.66287354 105.45553223 -24.8289209 106.21624023 -25 107 C-27.40545638 108.20272819 -28.94996953 108.10071472 -31.625 108.0625 C-32.44226563 108.05347656 -33.25953125 108.04445313 -34.1015625 108.03515625 C-34.72804687 108.02355469 -35.35453125 108.01195312 -36 108 C-34.70255447 104.50395168 -33.15333924 101.51772977 -31.13354492 98.38916016 C-27.89152214 93.0658532 -25.82716654 87.66898375 -23.86328125 81.7734375 C-23.50145752 80.71893906 -23.13963379 79.66444061 -22.7668457 78.57798767 C-21.60404877 75.18073644 -20.45762908 71.77824304 -19.3125 68.375 C-18.51609546 66.02989392 -17.71880862 63.68508729 -16.9206543 61.34057617 C-15.72849093 57.83768821 -14.53736736 54.33448118 -13.35115051 50.82957458 C-11.0782448 44.12175871 -8.74961815 37.43854588 -6.34375 30.77734375 C-5.57086753 28.6173221 -4.7990677 26.45691623 -4.0274353 24.29644775 C-3.55692263 22.99077359 -3.08036936 21.68725784 -2.59732056 20.38616943 C0.12006101 13.05679786 1.62217082 7.73207309 0 0 Z M6 10 C4.5795111 13.7485629 3.16434128 17.49911372 1.75 21.25 C1.35425781 22.29414062 0.95851563 23.33828125 0.55078125 24.4140625 C-4.65767896 36.40702078 -4.65767896 36.40702078 -7 49 C-5.74445313 49.06058594 -4.48890625 49.12117188 -3.1953125 49.18359375 C-1.50520183 49.26809928 0.18490197 49.35274209 1.875 49.4375 C2.69742188 49.47681641 3.51984375 49.51613281 4.3671875 49.55664062 C10.2675916 49.85627052 16.12677216 50.36194606 22 51 C20.65033758 47.07093989 19.29936266 43.14233408 17.94726562 39.21411133 C17.4892385 37.88284971 17.03154576 36.55147299 16.57421875 35.2199707 C15.47467034 32.01898273 14.37157972 28.81930907 13.25976562 25.62255859 C12.45010939 23.2943262 11.6462318 20.96407181 10.84960938 18.63134766 C10.50220703 17.63538574 10.15480469 16.63942383 9.796875 15.61328125 C9.49620117 14.74098877 9.19552734 13.86869629 8.88574219 12.9699707 C8.16915722 10.82109099 8.16915722 10.82109099 6 10 Z " fill="#000000" transform="translate(192,21)"/>
<path d="M0 0 C1.15021637 -0.00855011 1.15021637 -0.00855011 2.32366943 -0.01727295 C3.95795303 -0.02674838 5.59225595 -0.03326696 7.2265625 -0.03710938 C9.68265529 -0.0466736 12.13785907 -0.07760923 14.59375 -0.109375 C26.96965995 -0.19266124 39.89481866 -0.18887239 49.28515625 8.95703125 C56.50947665 16.60015283 58.16021487 23.23502321 57.890625 33.7265625 C57.17150762 39.88054774 55.09781741 44.67716183 50.6171875 49.0078125 C48.63645263 50.55694755 46.6340047 51.90031912 44.484375 53.203125 C43.824375 53.615625 43.164375 54.028125 42.484375 54.453125 C37.90104167 57.203125 37.90104167 57.203125 35.484375 57.203125 C36.80689987 61.29582933 38.13995357 65.3849175 39.48217773 69.47119141 C39.93581696 70.85699903 40.38674209 72.24369857 40.8347168 73.63134766 C46.87306899 92.44304437 46.87306899 92.44304437 60.484375 106.203125 C60.484375 106.863125 60.484375 107.523125 60.484375 108.203125 C50.33031524 105.55423984 44.93303807 102.55926295 39.28393555 93.54638672 C37.37751534 90.00459886 35.97408403 86.43083138 34.703125 82.62890625 C34.48316864 81.97115204 34.26321228 81.31339783 34.03659058 80.63571167 C33.8146402 79.96959869 33.59268982 79.30348572 33.36401367 78.6171875 C29.29007192 64.61511101 29.29007192 64.61511101 19.64355469 54.54077148 C17.73217059 53.72874092 15.82376856 53.00524043 13.85546875 52.34375 C7.60082768 50.22746357 4.2822113 45.34137412 0.484375 40.203125 C-1.50754576 62.79008367 -0.77264125 85.59354809 0.484375 108.203125 C-1.28612189 108.25723187 -3.05709349 108.29596619 -4.828125 108.328125 C-5.81425781 108.35132813 -6.80039062 108.37453125 -7.81640625 108.3984375 C-10.515625 108.203125 -10.515625 108.203125 -13.515625 106.203125 C-12.86655685 105.57883606 -12.21748871 104.95454712 -11.54875183 104.31134033 C-8.72095626 99.98824675 -8.94910236 96.53281304 -8.9855957 91.47167969 C-8.97686432 90.49719879 -8.96813293 89.5227179 -8.95913696 88.51870728 C-8.93477628 85.30395047 -8.93817035 82.08983731 -8.94140625 78.875 C-8.92896418 76.64250591 -8.91463082 74.41002163 -8.89848328 72.17755127 C-8.86044401 66.3056435 -8.84526567 60.43390451 -8.83569336 54.56188965 C-8.81595111 45.14834143 -8.75925702 35.73492199 -8.70693016 26.32151031 C-8.69152736 23.02591331 -8.68438291 19.73038014 -8.67878723 16.43475342 C-8.67177505 14.42883268 -8.66467445 12.42291225 -8.6574707 10.41699219 C-8.65799942 9.49336884 -8.65852814 8.56974548 -8.65907288 7.61813354 C-8.62054334 -0.41392025 -7.44134172 0.042649 0 0 Z M-0.515625 4.203125 C-0.65496352 10.64661013 -0.52430626 16.63855613 0.796875 22.953125 C1.04050781 24.16484375 1.28414062 25.3765625 1.53515625 26.625 C2.56080887 30.49124608 3.49696549 33.71680789 5.484375 37.203125 C8.06309352 38.68222774 10.17020873 39.66912751 12.921875 40.640625 C20.54661524 43.62327464 26.84560354 47.36235414 33.484375 52.203125 C40.81909823 49.0576014 46.94064583 45.88214827 50.32421875 38.328125 C52.39052587 31.62950845 51.70378577 24.40783775 48.921875 18.015625 C45.41701068 11.83204295 40.49546857 7.4839071 33.625 5.515625 C26.69487672 3.75372925 19.9049527 3.87191581 12.796875 4.015625 C10.86811523 4.03592773 10.86811523 4.03592773 8.90039062 4.05664062 C5.76126645 4.09164944 2.62305439 4.14075442 -0.515625 4.203125 Z " fill="#000000" transform="translate(631.515625,20.796875)"/>
<path d="M0 0 C1.24656067 -0.00199105 2.49312134 -0.0039821 3.77745658 -0.00603348 C5.15798448 -0.00318062 6.5385122 -0.00023503 7.91903973 0.00279331 C9.38765932 0.00235723 10.85627884 0.00148164 12.32489794 0.00020415 C16.36116984 -0.00203356 20.39741524 0.00197061 24.43368375 0.00698221 C28.78605643 0.01129688 33.13842759 0.00983956 37.49080181 0.00907993 C45.03180388 0.00855535 52.5727973 0.01169537 60.11379719 0.01731777 C71.0168446 0.02544156 81.91988782 0.0280489 92.82293793 0.02930576 C110.5120126 0.0314949 128.20108267 0.03815124 145.89015484 0.04760838 C163.0743994 0.05678607 180.2586427 0.06386516 197.44288921 0.06811619 C198.50195903 0.06837891 199.56102884 0.06864164 200.65219168 0.06891232 C205.96518379 0.07021735 211.27817592 0.07148106 216.59116805 0.07272422 C260.67431332 0.08309252 304.75745357 0.10070708 348.84059429 0.12304783 C348.84059429 0.78304783 348.84059429 1.44304783 348.84059429 2.12304783 C230.04059429 2.12304783 111.24059429 2.12304783 -11.15940571 2.12304783 C-11.15940571 1.79304783 -11.15940571 1.46304783 -11.15940571 1.12304783 C-7.37642986 0.24249829 -3.88043924 -0.00136876 0 0 Z " fill="#000000" transform="translate(255.159405708313,83.87695217132568)"/>
<path d="M0 0 C7.92 0 15.84 0 24 0 C23.34 1.32 22.68 2.64 22 4 C20.60623926 8.18128223 22.09239322 11.16607482 23.4375 15.1875 C23.70841965 16.0195697 23.97933929 16.8516394 24.25846863 17.70892334 C25.16283734 20.47582665 26.0809353 23.23794623 27 26 C27.64391546 27.95466059 28.28754698 29.90941473 28.9309082 31.86425781 C34.7090271 49.35712051 40.77557174 66.74642458 46.89195251 84.12319946 C49.59028487 91.80291913 52.24499206 99.49729795 54.890625 107.1953125 C55.30939407 108.41275146 55.72816315 109.63019043 56.15962219 110.88452148 C57.8200809 115.71242091 59.4805003 120.54032177 61.1343689 125.3704834 C65.07791963 136.88541684 69.06408632 148.37580885 73.37890625 159.7578125 C73.70044174 160.60874481 74.02197723 161.45967712 74.35325623 162.33639526 C76.98219213 170.5004819 76.98219213 170.5004819 82.48046875 176.4609375 C83.82044922 176.91339844 83.82044922 176.91339844 85.1875 177.375 C86.53908203 177.85066406 86.53908203 177.85066406 87.91796875 178.3359375 C88.60503906 178.55507813 89.29210937 178.77421875 90 179 C90 179.66 90 180.32 90 181 C79.11 181 68.22 181 57 181 C59.475 178.525 59.475 178.525 62 176 C62.66 176 63.32 176 64 176 C60.16362198 160.98295228 55.54697414 146.31150769 50.4375 131.6875 C50.02813705 130.50337021 50.02813705 130.50337021 49.61050415 129.2953186 C41.5684389 105.65106812 41.5684389 105.65106812 23 90 C12.79345257 85.4283173 3.34537073 84.72834085 -7.359375 87.97265625 C-16.81217004 91.65029692 -21.22141516 98.76795339 -25.22297668 107.74299622 C-28.08392861 114.61725686 -30.70150888 121.53861064 -33.13671875 128.57421875 C-33.68499077 130.1481414 -33.68499077 130.1481414 -34.24433899 131.75386047 C-35.00826938 133.95057302 -35.77031168 136.14794303 -36.53051758 138.34594727 C-37.68902268 141.69189774 -38.85686382 145.03449132 -40.02539062 148.37695312 C-40.77139857 150.52584552 -41.51686023 152.67492766 -42.26171875 154.82421875 C-42.60756516 155.81193771 -42.95341156 156.79965668 -43.30973816 157.81730652 C-45.26671859 163.50354842 -46.81135867 169.10374829 -48 175 C-44.535 176.98 -44.535 176.98 -41 179 C-41 179.66 -41 180.32 -41 181 C-48.92 181.33 -56.84 181.66 -65 182 C-65 181.34 -65 180.68 -65 180 C-63.15675635 178.30769193 -61.20405055 176.78962925 -59.23828125 175.2421875 C-53.24959995 169.24305475 -50.58245358 161.77796856 -47.953125 153.875 C-47.58486603 152.79650787 -47.21660706 151.71801575 -46.83718872 150.60684204 C-46.04567506 148.28554438 -45.25867398 145.96270402 -44.47576904 143.63848877 C-42.59037554 138.04201599 -40.67792099 132.45481882 -38.76806259 126.86665726 C-38.11482024 124.9540063 -37.46282958 123.04093231 -36.81106567 121.1277771 C-33.09650809 110.23246021 -29.27464565 99.37710968 -25.41098022 88.53390503 C-23.68396856 83.68466873 -21.96537659 78.83244954 -20.24609375 73.98046875 C-19.55323933 72.02522196 -18.86036803 70.06998114 -18.16748047 68.11474609 C-17.81627136 67.12359802 -17.46506226 66.13244995 -17.10321045 65.11126709 C-15.94008597 61.83103084 -14.77493476 58.55151782 -13.60986328 55.27197266 C-11.59360811 49.59211028 -9.58966187 43.90802157 -7.59332275 38.22113037 C-6.82996251 36.05246492 -6.06274138 33.88515418 -5.29144287 31.71929932 C-4.22442366 28.721305 -3.17119209 25.71879931 -2.12109375 22.71484375 C-1.64434959 21.3901281 -1.64434959 21.3901281 -1.15797424 20.03865051 C1.3266291 12.85405358 1.26407821 7.58446925 0 0 Z M8 11 C2.30260531 24.87916226 -2.87470782 38.87542462 -7.75 53.0625 C-8.72197322 55.87685938 -9.69531113 58.69074318 -10.66906738 61.50448608 C-11.28678968 63.29015099 -11.90359877 65.07613212 -12.51940918 66.86245728 C-14.40179941 72.31377043 -16.33998022 77.73974221 -18.37988281 83.13452148 C-19.10514842 84.98867338 -19.10514842 84.98867338 -19 87 C-18.05382813 86.71125 -17.10765625 86.4225 -16.1328125 86.125 C1.7112273 80.98163726 15.80192718 82.258953 33 89 C33.99 89.33 34.98 89.66 36 90 C33.3272146 79.05637505 29.52358987 68.45820096 25.875 57.8125 C25.54184784 56.8368811 25.20869568 55.86126221 24.865448 54.8560791 C19.83589265 40.13443999 14.64359339 25.49898791 9 11 C8.67 11 8.34 11 8 11 Z " fill="#000000" transform="translate(70,154)"/>
<path d="M0 0 C8.25 0 16.5 0 25 0 C21 7 21 7 19.76587296 9.02990055 C18.65222628 11.89459853 18.74800984 14.45459153 18.74603271 17.52159119 C18.74291273 18.17484943 18.73979275 18.82810768 18.73657823 19.50116163 C18.72860631 21.68828506 18.73491863 23.87513041 18.74121094 26.06225586 C18.73850069 27.63106956 18.73493956 29.199882 18.73059082 30.76869202 C18.72146784 35.02901728 18.7250109 39.28924574 18.73134899 43.54957271 C18.73641034 48.00754353 18.73171708 52.46550603 18.72857666 56.92347717 C18.72493703 64.41115813 18.72973563 71.89879964 18.73925781 79.38647461 C18.75013839 88.0422421 18.74661966 96.69791535 18.735605 105.35368055 C18.7265273 112.78478392 18.72524934 120.21585892 18.73048234 127.64696604 C18.73359989 132.08541411 18.73401736 136.52381789 18.72740936 140.96226311 C18.72162965 145.13602163 18.72564426 149.30965875 18.73719788 153.48340416 C18.73984128 155.01484729 18.73908481 156.54630066 18.73467255 158.07773972 C18.72920288 160.1691059 18.7360682 162.26008369 18.74603271 164.35142517 C18.74678677 165.52151595 18.74754082 166.69160673 18.74831772 167.89715481 C19.00205586 171.02534545 19.59439418 173.20732994 21 176 C22.67625949 177.41853185 22.67625949 177.41853185 24.625 178.3125 C25.73875 178.869375 26.8525 179.42625 28 180 C28 180.33 28 180.66 28 181 C21.07 181 14.14 181 7 181 C6.18331259 171.02664943 5.8586855 161.15951186 5.87402344 151.15722656 C5.87262436 149.62460783 5.87072227 148.0919895 5.86836243 146.55937195 C5.86390795 143.28946879 5.86201031 140.01957804 5.86190033 136.74967194 C5.86074846 131.57061152 5.84782973 126.39162049 5.83233643 121.21258545 C5.82847715 119.89504866 5.82847715 119.89504866 5.8245399 118.55089498 C5.81927496 116.75667312 5.81398948 114.96245132 5.80868387 113.16822958 C5.77370468 101.13313709 5.7470286 89.09813606 5.74951172 77.06298828 C5.75110295 68.91177704 5.73501541 60.76080787 5.69880509 52.60967422 C5.68041096 48.3080406 5.67094621 44.00681104 5.68328094 39.70514679 C5.69476314 35.66315639 5.68290897 31.62189049 5.65364647 27.57999611 C5.64703979 26.10387033 5.64881422 24.6276775 5.65994453 23.1515789 C5.67395712 21.12396858 5.65385777 19.09621089 5.63250732 17.06866455 C5.63104076 15.93829395 5.6295742 14.80792336 5.6280632 13.6432991 C4.95900306 8.71481767 4.95900306 8.71481767 0 0 Z " fill="#000000" transform="translate(165,154)"/>
<path d="M0 0 C7.4335097 -0.07015797 14.86698418 -0.12313971 22.30075169 -0.15543652 C25.75425142 -0.17095378 29.20752121 -0.19192926 32.66088867 -0.22631836 C77.3396659 -0.65942776 77.3396659 -0.65942776 93.9453125 14.8125 C103.81672283 25.41037775 106.65207141 37.67774245 106.30859375 51.734375 C105.70978099 62.91552617 100.95939198 71.32711725 92.96875 78.93359375 C82.92086027 87.39784869 69.78417087 91.59529969 56.69921875 91.24609375 C44.31575706 90.11706613 33.95646693 85.72520716 25 77 C23.27941912 74.83113877 21.8190951 72.54704824 20.375 70.1875 C20.00632813 69.60935547 19.63765625 69.03121094 19.2578125 68.43554688 C17.28475063 65.29184794 15.5118789 62.09774531 13.86572266 58.77075195 C13.51385895 58.06134964 13.16199524 57.35194733 12.79946899 56.62104797 C12.53564423 56.08610214 12.27181946 55.55115631 12 55 C11.9298981 70.03812961 11.87700605 85.07624655 11.84456348 100.11450481 C11.82909898 107.09714408 11.80801755 114.07968178 11.77368164 121.06225586 C11.74057028 127.79901847 11.72315359 134.53565369 11.71536827 141.27250099 C11.70981908 143.84455846 11.69898308 146.41661006 11.68280983 148.98862267 C11.66107847 152.58718799 11.65803135 156.18531531 11.65942383 159.78393555 C11.648638 160.85064484 11.63785217 161.91735413 11.6267395 163.01638794 C11.6640056 171.89841525 13.55005973 174.55005973 20 181 C10.76 181 1.52 181 -8 181 C-6 177 -6 177 -3.9070158 175.17937469 C-1.24911674 172.14187603 -1.49546672 170.1294124 -1.48774719 166.13000488 C-1.48095151 165.4392891 -1.47415582 164.74857331 -1.4671542 164.03692675 C-1.4491988 161.72286165 -1.45966515 159.40980206 -1.4699707 157.09570312 C-1.46287351 155.43659147 -1.45401037 153.77748656 -1.44351196 152.11839294 C-1.41987992 147.61222585 -1.42063654 143.10634801 -1.42542672 138.6001339 C-1.42601952 133.88672719 -1.40333753 129.17343689 -1.38285828 124.46008301 C-1.34742245 115.52952655 -1.33142621 106.5990515 -1.3230831 97.66843271 C-1.31013301 84.55866207 -1.27185844 71.44895981 -1.22898388 58.33925629 C-1.22584519 57.37836798 -1.22270651 56.41747968 -1.21947271 55.42747355 C-1.21319251 53.51172951 -1.20684894 51.59598567 -1.20044011 49.68024206 C-1.1823635 44.06483098 -1.1712652 38.44946001 -1.16614306 32.83402252 C-1.16231269 29.34304114 -1.15469933 25.8520743 -1.1463356 22.36110115 C-1.14337398 20.74054754 -1.14213993 19.11998972 -1.14274788 17.49943352 C-1.14341429 15.28958604 -1.13807077 13.07983045 -1.13130188 10.86999512 C-1.1300446 9.63261345 -1.12878733 8.39523178 -1.12749195 7.1203537 C-1.0221875 4.54303707 -0.76576622 2.44560265 0 0 Z M11 4 C10.67872057 18.36658856 10.67872057 18.36658856 12.125 32.625 C12.25551758 33.39513428 12.38603516 34.16526855 12.52050781 34.95874023 C14.84508187 47.56736394 18.83636072 58.97731416 27 69 C27.61875 69.9075 28.2375 70.815 28.875 71.75 C36.07975034 79.37855918 46.66950203 84.18266812 57.0703125 85.203125 C68.30241493 85.45937068 78.69199484 81.72795871 87.0390625 74.1484375 C95.50639024 65.10461085 97.49641726 55.19071554 97.27734375 43.18359375 C96.77613108 32.20928049 91.70448448 22.06762135 83.625 14.6875 C71.86456054 5.41238217 56.77676793 3.8147064 42.25 3.90234375 C41.35128174 3.9037587 40.45256348 3.90517365 39.52661133 3.90663147 C36.68437225 3.91218417 33.84221487 3.92472763 31 3.9375 C29.06119906 3.94252112 27.12239688 3.94708295 25.18359375 3.95117188 C20.45569817 3.96213806 15.72786289 3.97936956 11 4 Z " fill="#000000" transform="translate(211,154)"/>
<path d="M0 0 C8.91 0 17.82 0 27 0 C24.66666667 2.33333333 22.33333333 4.66666667 20 7 C18.65811878 14.98194355 18.87143304 23.02579938 18.90234375 31.09765625 C18.90421247 32.54210867 18.90563423 33.98656173 18.90663147 35.43101501 C18.91042091 39.20386554 18.92022003 42.97667661 18.93133545 46.74951172 C18.94162704 50.61099718 18.94614557 54.47248911 18.95117188 58.33398438 C18.96184606 65.88934076 18.97887872 73.44466482 19 81 C19.81818207 80.60724632 19.81818207 80.60724632 20.65289307 80.20655823 C23.14742819 79.01111266 25.64399924 77.81997908 28.140625 76.62890625 C28.99865723 76.21692993 29.85668945 75.80495361 30.74072266 75.38049316 C45.9456041 68.13955179 65.38732352 65.52158794 81.81054688 70.77978516 C85.92869108 72.35529685 89.87471212 74.22530821 93.8515625 76.125 C94.63700439 76.49753906 95.42244629 76.87007813 96.23168945 77.25390625 C98.15560861 78.16685344 100.07796403 79.08309475 102 80 C102.02566112 72.76327281 102.0429953 65.52655763 102.05493164 58.28979492 C102.05991542 55.83536338 102.06670486 53.38093473 102.07543945 50.92651367 C102.10308414 42.95020885 102.08489264 34.97592608 102 27 C101.99313171 26.10867371 101.98626343 25.21734741 101.97918701 24.29901123 C101.95074307 21.99824375 101.88802126 19.70184198 101.80859375 17.40234375 C101.77435303 16.18925537 101.7401123 14.97616699 101.70483398 13.72631836 C100.93634842 8.73441189 100.93634842 8.73441189 96 0 C104.91 0 113.82 0 123 0 C118 5 118 5 116.21299171 6.40097332 C114.25661075 8.97997309 114.60884065 11.39879464 114.59213257 14.58442688 C114.58463033 15.2565429 114.5771281 15.92865892 114.56939852 16.62114209 C114.54802959 18.87818515 114.54818216 21.1347089 114.54833984 23.3918457 C114.5377286 25.00815644 114.52589892 26.62445956 114.51293945 28.24075317 C114.48212132 32.63548828 114.47101352 37.03006056 114.46529722 41.42489266 C114.4609462 44.17029123 114.45257375 46.91564745 114.44279861 49.66103172 C114.40903759 59.23815449 114.39191559 68.81515387 114.38916016 78.39233398 C114.38612577 87.3204163 114.34568901 96.24780595 114.28801191 105.17568713 C114.24024434 112.83949914 114.2194281 120.50308245 114.21936953 128.16704243 C114.21883118 132.74496775 114.20721754 137.32221519 114.16819382 141.89998817 C114.13234927 146.20705436 114.13003557 150.51285631 114.15336609 154.81999588 C114.15622801 156.39942223 114.14715679 157.97892279 114.12518692 159.55819893 C113.70616351 167.82227054 113.70616351 167.82227054 116.61473465 175.23229027 C118.48303699 176.88604025 118.48303699 176.88604025 120.49836159 178.04695415 C120.99390226 178.36145928 121.48944294 178.67596441 122 179 C122 179.66 122 180.32 122 181 C112.76 181 103.52 181 94 181 C100 173 100 173 101 172 C101.25124507 168.9106162 101.43208075 165.84544449 101.5625 162.75 C101.6251001 161.28735718 101.6251001 161.28735718 101.68896484 159.79516602 C102.18491942 146.8628974 102.1402074 133.93866918 102 121 C101.99274902 119.68193359 101.98549805 118.36386719 101.97802734 117.00585938 C101.95509054 113.06571691 101.88613614 109.12703371 101.8125 105.1875 C101.80686035 103.98407959 101.8012207 102.78065918 101.79541016 101.54077148 C101.61333969 94.46366229 100.82564304 89.3774407 96 84 C85.382507 74.79939948 69.60850988 72.0525721 56 73 C44.14075382 74.73117732 32.9303729 77.9978824 23.62109375 85.765625 C17.7114461 93.91097067 18.57458374 103.850792 18.63671875 113.41796875 C18.63723835 115.00498962 18.6367168 116.59201114 18.63520813 118.17903137 C18.63529741 121.48981451 18.64563881 124.80035188 18.66381836 128.11108398 C18.68655985 132.34436619 18.68703475 136.57729183 18.68030071 140.8106184 C18.67695309 144.08180383 18.68360483 147.35290864 18.69342995 150.62407875 C18.69726436 152.18491506 18.6984375 153.74576036 18.6968441 155.30660057 C18.6964714 157.48867154 18.70914832 159.67029197 18.7253418 161.85229492 C18.73225288 163.71019905 18.73225288 163.71019905 18.73930359 165.6056366 C19.00701589 169.09134949 19.63252294 171.78799447 21 175 C23.53442406 177.22816986 23.53442406 177.22816986 26 179 C26 179.66 26 180.32 26 181 C17.75 181 9.5 181 1 181 C2.12738142 178.18154646 3.2960202 175.37639591 4.59776306 172.6341095 C6.94126341 166.2932145 6.44362189 159.52121976 6.43579102 152.85424805 C6.44477892 151.32412992 6.45498953 149.79401856 6.46632385 148.26391602 C6.49272296 144.12531667 6.49985302 139.98690364 6.50177121 135.84822822 C6.50390956 133.25770958 6.51032539 130.66723771 6.51826286 128.07673073 C6.54598281 119.02548868 6.55827258 109.9743788 6.5559082 100.9230957 C6.55410672 92.50800292 6.5857546 84.0934876 6.63313919 75.67854089 C6.67246328 68.4349281 6.68845584 61.19150333 6.68654197 53.94778472 C6.68577988 49.62973904 6.69417355 45.31220703 6.72607613 40.99426842 C6.75528631 36.93014627 6.75524599 32.86702303 6.73352623 28.80286407 C6.73040915 27.31907236 6.73735538 25.83521661 6.7556076 24.35153389 C6.77908207 22.3096454 6.76464841 20.27111983 6.74171448 18.22929382 C6.74334878 17.09205211 6.74498308 15.95481039 6.74666691 14.7831068 C5.90337954 9.51540337 5.90337954 9.51540337 0 0 Z " fill="#000000" transform="translate(323,154)"/>
<path d="M0 0 C8.58 0 17.16 0 26 0 C25.34 2.97 24.68 5.94 24 9 C24.51315132 12.79853736 24.51315132 12.79853736 25.8515625 16.5390625 C26.08082428 17.25413971 26.31008606 17.96921692 26.54629517 18.70596313 C27.33876999 21.14652302 28.16711059 23.57295074 29 26 C29.6222318 27.84988058 30.24429506 29.69981787 30.86621094 31.54980469 C32.9968204 37.83855065 35.18482475 44.10680505 37.375 50.375 C38.17921841 52.68624076 38.98308654 54.99760343 39.78662109 57.30908203 C41.80782485 63.12013746 43.83376078 68.92952875 45.86157227 74.73828125 C47.56058408 79.6061341 49.25673296 84.47498372 50.953125 89.34375 C52.77578283 94.57474015 54.59988342 99.80520827 56.43041992 105.03344727 C59.39188621 113.49538504 62.33583415 121.96268002 65.23883057 130.44488525 C66.69669328 134.70307699 68.16069734 138.95914714 69.62493896 143.21514893 C70.3263564 145.25977127 71.02470376 147.30544972 71.7197876 149.35223389 C72.68435996 152.19196919 73.65944111 155.02789785 74.63671875 157.86328125 C74.91838394 158.70185165 75.20004913 159.54042206 75.49024963 160.40440369 C77.90067447 167.34159238 80.66099933 172.40493906 86.75 176.8125 C88.17983962 177.8572054 89.60074109 178.91467738 91 180 C91 180.33 91 180.66 91 181 C80.77 181 70.54 181 60 181 C61.98 178.36 63.96 175.72 66 173 C66.23466624 169.9693638 66.23466624 169.9693638 65.07421875 167.140625 C64.71561768 166.04202148 64.3570166 164.94341797 63.98754883 163.81152344 C63.55853271 162.6362207 63.1295166 161.46091797 62.6875 160.25 C62.26686279 159.01024414 61.84622559 157.77048828 61.4128418 156.49316406 C60.48954567 153.78046204 59.53958535 151.07907054 58.56933594 148.3828125 C57.19008112 144.54964344 55.85830891 140.70153869 54.53587341 136.84844971 C53.14571402 132.80942432 51.72945843 128.77968374 50.3125 124.75 C50.04368011 123.97805298 49.77486023 123.20610596 49.49789429 122.4107666 C44.95070297 109.43184518 39.96333309 97.00110088 26.99609375 90.4921875 C16.22991504 85.86867517 6.54357931 84.27307846 -4.75390625 88.09765625 C-13.40714923 91.57400256 -19.02606136 98.22271212 -22.63671875 106.640625 C-26.95144671 116.84530879 -30.4753458 127.36580235 -34.08813477 137.83349609 C-35.31806656 141.39110141 -36.56193512 144.94363431 -37.80664062 148.49609375 C-38.5972001 150.77574848 -39.38694281 153.05568666 -40.17578125 155.3359375 C-40.54552567 156.38816498 -40.91527008 157.44039246 -41.29621887 158.52450562 C-43.19360966 164.06358529 -44.53384922 169.15763497 -45 175 C-44.01 175.61875 -43.02 176.2375 -42 176.875 C-41.01 177.57625 -40.02 178.2775 -39 179 C-39 179.66 -39 180.32 -39 181 C-46.92 181.33 -54.84 181.66 -63 182 C-61.84217939 178.52653817 -61.22114683 178.30842892 -58.25 176.4375 C-50.06345956 170.49530299 -47.60831836 159.57670701 -44.515625 150.3671875 C-43.88270408 148.51313538 -43.24977852 146.65908483 -42.61666203 144.80509949 C-41.94867501 142.84491162 -41.2840678 140.88360807 -40.62045288 138.92193604 C-38.52187023 132.71970053 -36.40169157 126.52483416 -34.28281212 120.32950974 C-33.80432366 118.93016638 -33.32609508 117.53073415 -32.84812355 116.13121414 C-28.72588745 104.06161767 -24.50425157 92.02967784 -20.2177124 80.0173645 C-19.1914724 77.13615269 -18.1710383 74.2529564 -17.15283203 71.36889648 C-16.81856201 70.42220596 -16.48429199 69.47551544 -16.13989258 68.50013733 C-15.46810869 66.59744249 -14.79639598 64.69472252 -14.12475586 62.79197693 C-11.92383889 56.57099141 -9.68218649 50.36580641 -7.42347717 44.16558838 C-5.84504337 39.81207709 -4.29411892 35.44908701 -2.74893188 31.0836792 C-2.00659819 29.0056931 -1.25254551 26.9318519 -0.48617554 24.86260986 C0.5685827 22.01078368 1.58148153 19.14720192 2.5859375 16.27734375 C2.90768448 15.43798782 3.22943146 14.5986319 3.56092834 13.73384094 C3.82747726 12.94631943 4.09402618 12.15879791 4.36865234 11.34741211 C4.6127182 10.67278427 4.85678406 9.99815643 5.10824585 9.30308533 C5.15604205 5.88055448 5.15604205 5.88055448 0 0 Z M10 12 C4.23199809 24.55454311 -0.14877494 37.56805287 -4.625 50.625 C-5.38235023 52.82047202 -6.14015981 55.01578564 -6.8984375 57.2109375 C-10.31767572 67.12373759 -13.69804483 77.04743382 -17 87 C-16.36723145 86.86577637 -15.73446289 86.73155273 -15.08251953 86.59326172 C-14.35403809 86.43873535 -13.62555664 86.28420898 -12.875 86.125 C-10.21913795 85.56163532 -7.78793081 84.92009858 -5.2421875 83.9609375 C7.1539784 80.28689315 19.72402138 83.18190429 31.4375 87.6875 C34.83640729 89.17285268 34.83640729 89.17285268 38 89 C35.42374918 78.56870993 31.86361786 68.46404302 28.375 58.3125 C28.06485962 57.40757812 27.75471924 56.50265625 27.43518066 55.5703125 C23.64160214 44.51023688 19.81252646 33.46468481 15.75 22.5 C15.39212402 21.52329346 15.03424805 20.54658691 14.66552734 19.5402832 C14.33762207 18.67105225 14.0097168 17.80182129 13.671875 16.90625 C13.3944043 16.16697266 13.11693359 15.42769531 12.83105469 14.66601562 C12.11118536 12.80528002 12.11118536 12.80528002 10 12 Z " fill="#000000" transform="translate(519,154)"/>
<path d="M0 0 C9.24 0 18.48 0 28 0 C26.68 1.65 25.36 3.3 24 5 C24.09859078 9.05699056 25.92321374 11.90737493 28.03515625 15.296875 C28.67219482 16.32643311 29.3092334 17.35599121 29.96557617 18.41674805 C30.65756104 19.51672119 31.3495459 20.61669434 32.0625 21.75 C32.77951552 22.90050924 33.49606133 24.05131133 34.2121582 25.20239258 C36.46151826 28.8099945 38.72846269 32.40633139 41 36 C41.55790222 36.88325958 41.55790222 36.88325958 42.1270752 37.78436279 C51.72364086 53.12031062 51.72364086 53.12031062 62 68 C64.72212669 65.40178965 66.93716918 62.83021317 68.99609375 59.68359375 C69.54813477 58.84658936 70.10017578 58.00958496 70.66894531 57.1472168 C71.25256836 56.25301025 71.83619141 55.35880371 72.4375 54.4375 C73.69031062 52.53573612 74.94424128 50.63470967 76.19921875 48.734375 C76.83263184 47.77466797 77.46604492 46.81496094 78.11865234 45.82617188 C80.41677057 42.37392472 82.76320187 38.95716688 85.12084961 35.54541016 C89.7964329 28.77832138 94.41975863 21.97704097 98.875 15.0625 C99.52807129 14.07769653 99.52807129 14.07769653 100.19433594 13.07299805 C102.40374327 9.63855556 102.40374327 9.63855556 102.9453125 5.68359375 C101.9735517 3.65452644 101.9735517 3.65452644 99 2 C99 1.34 99 0.68 99 0 C106.92 0 114.84 0 123 0 C119.79659359 3.20340641 116.4476836 5.42941533 112.66796875 7.890625 C106.56919664 12.7124946 102.35821752 19.16122439 98.0625 25.5625 C96.92462658 27.24358937 95.7865993 28.92457461 94.6484375 30.60546875 C94.05643555 31.48251465 93.46443359 32.35956055 92.85449219 33.26318359 C90.94871433 36.07568619 89.02738759 38.87697286 87.1015625 41.67578125 C78.9992664 53.42857327 78.9992664 53.42857327 71.1875 65.375 C70.60355469 66.29023438 70.01960937 67.20546875 69.41796875 68.1484375 C66.26629174 74.48652074 65.70569587 80.69750527 65.75708008 87.64404297 C65.75423256 88.8799115 65.75423256 88.8799115 65.75132751 90.14074707 C65.74764881 92.84132671 65.75828526 95.54163209 65.76953125 98.2421875 C65.77072518 100.13493824 65.77117576 102.02768958 65.7709198 103.92044067 C65.77247985 107.87945285 65.78073099 111.838374 65.79418945 115.79736328 C65.81115504 120.84965405 65.81500406 125.90184477 65.81424427 130.95416069 C65.81451743 134.8611444 65.82002234 138.76810664 65.82724571 142.67508316 C65.83040837 144.53684451 65.83239411 146.39860827 65.83313942 148.26037216 C65.84320854 161.65927059 65.84320854 161.65927059 67 175 C69.97 176.32 72.94 177.64 76 179 C74 181 74 181 71.01904297 181.22705078 C69.77268066 181.21657715 68.52631836 181.20610352 67.2421875 181.1953125 C66.57913605 181.1924826 65.91608459 181.18965271 65.23294067 181.18673706 C63.11344417 181.17553435 60.99436896 181.15043051 58.875 181.125 C57.43880818 181.11497028 56.00260975 181.10584441 54.56640625 181.09765625 C51.04413372 181.075595 47.52210797 181.04106494 44 181 C44 180.34 44 179.68 44 179 C44.56589844 178.83886719 45.13179687 178.67773438 45.71484375 178.51171875 C48.18477216 177.59580505 49.94922694 176.66200061 52 175 C52.70898981 172.96211567 52.70898981 172.96211567 52.73901367 170.53930664 C52.79366791 169.5517337 52.84832214 168.56416077 52.90463257 167.54666138 C53.10957304 159.92504011 53.20940948 152.30791912 53.23828125 144.68359375 C53.24235678 143.76839525 53.2464323 142.85319675 53.25063133 141.91026497 C53.27136112 137.07470054 53.28572416 132.23916346 53.29516602 127.40356445 C53.30626234 122.43525971 53.34073696 117.46739879 53.38033772 112.49925137 C53.40655909 108.65146593 53.41486225 104.80378617 53.41844749 100.95591927 C53.42329136 99.12482738 53.4348419 97.29373951 53.45348549 95.46273613 C53.67832192 81.74004767 53.67832192 81.74004767 49 69 C48.58517868 68.24709183 48.17035736 67.49418365 47.7429657 66.71846008 C46.53308251 64.58342956 45.24963398 62.51113821 43.9375 60.4375 C43.45853271 59.66720459 42.97956543 58.89690918 42.48608398 58.10327148 C38.79265017 52.18858641 35.02023902 46.32363238 31.20581055 40.48632812 C28.72099355 36.68160389 26.27828797 32.85634676 23.88671875 28.9921875 C23.10155884 27.72846313 23.10155884 27.72846313 22.30053711 26.43920898 C21.30183523 24.82785673 20.30870657 23.21303008 19.32250977 21.59399414 C15.06610503 14.74383117 10.27899884 8.18418439 3.5625 3.5625 C2.3621054 2.72655158 1.16986791 1.87816059 0 1 C0 0.67 0 0.34 0 0 Z " fill="#000000" transform="translate(589,154)"/>
<path d="M0 0 C7.92 0 15.84 0 24 0 C22.35 1.98 20.7 3.96 19 6 C19.1332636 9.31095437 19.1332636 9.31095437 20.5390625 12.703125 C20.76587204 13.35666458 20.99268158 14.01020416 21.22636414 14.68354797 C21.99728152 16.8836865 22.81134048 19.0653434 23.625 21.25 C24.18712272 22.83078563 24.74586859 24.41277547 25.30151367 25.99584961 C26.52189594 29.46354842 27.75776983 32.92522666 29.00244141 36.38427734 C31.09474129 42.22946729 33.09235137 48.10487026 35.07421875 53.98828125 C35.41915375 55.01181702 35.76408875 56.03535278 36.11947632 57.08990479 C36.82597725 59.18683206 37.53236671 61.28379689 38.23864746 63.38079834 C44.61445578 82.27158565 51.12509668 101.11602389 57.73730469 119.92529297 C60.60852718 128.09890908 63.44424568 136.27982817 66.16796875 144.50390625 C66.66462546 145.99210848 67.16152656 147.48022917 67.65869141 148.96826172 C68.56373478 151.67722091 69.45028526 154.39120331 70.32568359 157.10986328 C73.59786255 166.90526374 77.17404202 173.53631173 86 179 C86 179.66 86 180.32 86 181 C72.635 181.495 72.635 181.495 59 182 C59.52257095 178.86457432 60.05584314 175.72948966 60.69848633 172.61645508 C61.05252742 168.36996866 60.17663066 165.09664227 58.82421875 161.13671875 C58.58352158 160.39514526 58.3428244 159.65357178 58.09483337 158.88952637 C57.30822476 156.48328568 56.49922725 154.08537296 55.6875 151.6875 C55.13487356 150.02592398 54.58263036 148.36422045 54.03076172 146.70239258 C50.72298717 136.80706113 47.29178583 126.95577145 43.625 117.1875 C43.24561279 116.15906982 42.86622559 115.13063965 42.4753418 114.07104492 C38.6305867 104.13883053 32.84065998 95.36575026 23.0625 90.5546875 C12.23817802 85.91190234 2.62178205 84.25577356 -8.75 88.09375 C-19.96830909 92.61223561 -24.43944866 102.08601038 -29.00564575 112.59408569 C-32.06509634 119.9966547 -34.60690568 127.60518739 -37.19921875 135.18066406 C-38.25399139 138.26165886 -39.32131524 141.33808645 -40.390625 144.4140625 C-41.07885836 146.40599677 -41.76638324 148.398176 -42.453125 150.390625 C-42.76566223 151.29298889 -43.07819946 152.19535278 -43.40020752 153.12506104 C-44.95901481 157.69236323 -46.42953381 162.28089152 -47.78417969 166.91308594 C-48.17123077 168.23128326 -48.17123077 168.23128326 -48.56610107 169.57611084 C-49.02802354 172.15654787 -48.99650779 173.58552796 -48 176 C-46.35857037 177.0409066 -44.69287785 178.04504326 -43 179 C-43 179.66 -43 180.32 -43 181 C-50.26 181 -57.52 181 -65 181 C-63.02 178.69 -61.04 176.38 -59 174 C-54.73518586 167.91330809 -52.29138631 161.90314301 -49.953125 154.875 C-49.58482071 153.7963266 -49.21651642 152.7176532 -48.83705139 151.60629272 C-48.04550062 149.28480898 -47.25845313 146.96178576 -46.47549438 144.63739014 C-44.59164252 139.04592903 -42.68016088 133.46394161 -40.77161598 127.88087082 C-40.1186906 125.96952764 -39.46701285 124.05776285 -38.81559753 122.14590454 C-34.73923558 110.18965201 -30.54432201 98.27696842 -26.3125 86.375 C-25.62202876 84.43002777 -24.93159895 82.48504083 -24.24121094 80.54003906 C-21.02451014 71.48315924 -17.79726457 62.43004002 -14.56913757 53.37722778 C-13.07085793 49.1748635 -11.57370263 44.97209894 -10.07650757 40.76934814 C-9.0231295 37.81487276 -7.96737676 34.86125399 -6.91137695 31.90771484 C-6.27416938 30.12079744 -5.63703934 28.33385239 -5 26.546875 C-4.70921066 25.73576263 -4.41842133 24.92465027 -4.11882019 24.08895874 C-3.7196917 22.96742905 -3.7196917 22.96742905 -3.3125 21.82324219 C-3.08175781 21.1774823 -2.85101562 20.53172241 -2.61328125 19.86639404 C-1.17240692 15.48139242 -0.73661137 11.36486116 -0.4375 6.75 C-0.293125 4.5225 -0.14875 2.295 0 0 Z M6 12 C0.07041549 26.35858463 -5.27127521 40.88032626 -10.34887695 55.56079102 C-11.58253109 59.12029641 -12.83108687 62.67436688 -14.08007812 66.22851562 C-14.86808927 68.4970828 -15.6552327 70.7659516 -16.44140625 73.03515625 C-16.81519913 74.09436783 -17.188992 75.15357941 -17.57411194 76.24488831 C-17.90873947 77.22118698 -18.243367 78.19748566 -18.58813477 79.20336914 C-19.03492332 80.48855186 -19.03492332 80.48855186 -19.49073792 81.79969788 C-20.23787541 84.15637731 -20.23787541 84.15637731 -19 87 C-18.19820312 86.71125 -17.39640625 86.4225 -16.5703125 86.125 C-2.00587895 81.3692666 11.24433561 81.5688905 25.64453125 86.80859375 C28.46605278 87.81041455 31.0708633 88.45576322 34 89 C32.081111 81.66992776 29.90993896 74.47917057 27.453125 67.3125 C27.11883484 66.32991211 26.78454468 65.34732422 26.44012451 64.33496094 C25.73578052 62.26719212 25.02980591 60.19997809 24.32226562 58.13330078 C23.26263669 55.03692607 22.20903211 51.93855216 21.15625 48.83984375 C16.94892536 36.49145684 12.57740829 24.21602591 8 12 C7.34 12 6.68 12 6 12 Z " fill="#000000" transform="translate(756,154)"/>
<path d="M0 0 C0.22042969 1.47533203 0.22042969 1.47533203 0.4453125 2.98046875 C1.79441417 11.50083695 3.61608753 19.7689319 6 28.0625 C6.2489502 28.92963623 6.49790039 29.79677246 6.75439453 30.69018555 C8.28535224 35.89012802 10.03732502 40.94728019 12 46 C14.68304045 39.45369602 16.25453122 32.91807889 17.6875 26 C17.91244141 24.93910156 18.13738281 23.87820313 18.36914062 22.78515625 C18.91830765 20.19121838 19.46178108 17.59622751 20 15 C20.66 15 21.32 15 22 15 C22.23187012 15.86278564 22.46374023 16.72557129 22.70263672 17.61450195 C23.56673076 20.81933651 24.4357402 24.02275323 25.30810547 27.2253418 C25.68443091 28.61087418 26.05879756 29.99694017 26.43115234 31.38354492 C26.96716643 33.378232 27.51022975 35.3708847 28.0546875 37.36328125 C28.54171143 39.16212769 28.54171143 39.16212769 29.03857422 40.99731445 C29.8917643 44.13508278 29.8917643 44.13508278 32 47 C35.86942641 35.77441131 39.39002235 24.48404324 42.63891602 13.0625 C42.91791748 12.08667969 43.19691895 11.11085938 43.484375 10.10546875 C43.85127441 8.80838989 43.85127441 8.80838989 44.22558594 7.48510742 C45.0226818 4.92721373 45.97321111 2.47365295 47 0 C47.33 0 47.66 0 48 0 C48.31025973 6.01740585 47.19299498 11.14369207 45.625 16.9375 C45.36895996 17.90373291 45.11291992 18.86996582 44.84912109 19.86547852 C41.00983219 34.03817265 36.47210051 48.01705547 32 62 C31.34 62 30.68 62 30 62 C29.0381577 59.48045712 28.08045759 56.95946363 27.125 54.4375 C26.85558594 53.73302734 26.58617187 53.02855469 26.30859375 52.30273438 C22 40.90072409 22 40.90072409 22 35 C21.34 35 20.68 35 20 35 C16.87917959 43.86970011 14.47432411 52.93399823 12 62 C9.03391145 59.22621885 8.07263088 56.96117208 6.8125 53.0625 C6.60890869 52.43496826 6.40531738 51.80743652 6.19555664 51.16088867 C3.57555841 42.9202186 1.26950368 34.57927536 -1.05737305 26.25219727 C-2.93388087 19.56845592 -4.95929771 12.9820299 -7.26342773 6.43237305 C-8 4 -8 4 -8 1 C-5.29120665 -0.35439668 -2.99066732 -0.06501451 0 0 Z " fill="#000000" transform="translate(237,353)"/>
<path d="M0 0 C3.21313668 -0.11163993 5.06135419 -0.13897949 8 1 C10.73539719 4.00191533 12.53675923 7.4284665 14.4375 11 C15.47767193 12.85427475 16.51802656 14.70844703 17.55859375 16.5625 C18.00517334 17.38878906 18.45175293 18.21507812 18.91186523 19.06640625 C19.85411367 20.94392874 19.85411367 20.94392874 21 22 C21.96099609 20.49759766 21.96099609 20.49759766 22.94140625 18.96484375 C27.46079749 11.98964228 31.74949062 5.57110618 38 0 C38.495 0.99 38.495 0.99 39 2 C38.40832031 2.845625 37.81664062 3.69125 37.20703125 4.5625 C32.06399962 11.92073524 32.06399962 11.92073524 27.0625 19.375 C26.70285156 19.91898437 26.34320312 20.46296875 25.97265625 21.0234375 C23.37743249 26.2972657 22.75481496 31.4359434 22.8046875 37.24609375 C22.80893234 38.23005882 22.80893234 38.23005882 22.81326294 39.23390198 C22.82434016 41.30196409 22.84941937 43.36957173 22.875 45.4375 C22.88504598 46.85090515 22.89416898 48.26431717 22.90234375 49.67773438 C22.92423816 53.11863394 22.95867949 56.55927252 23 60 C19.535 59.505 19.535 59.505 16 59 C16.0721875 58.22398437 16.144375 57.44796875 16.21875 56.6484375 C18.21550047 33.40848069 14.78204101 21.70508571 1.28515625 2.8984375 C0 1 0 1 0 0 Z " fill="#000000" transform="translate(802,353)"/>
<path d="M0 0 C1.98 0 3.96 0 6 0 C6.04898438 1.258125 6.09796875 2.51625 6.1484375 3.8125 C6.50283975 12.1503654 6.92999004 20.41486079 8.0625 28.6875 C10.20387794 44.81272481 10.20387794 44.81272481 6 52 C1.03566715 57.44070823 -3.98773171 59.97021818 -11.375 60.375 C-16.27195375 60.25113102 -20.00258147 58.8009123 -24 56 C-29.18330221 50.54389241 -30.47587948 46.14993345 -30.30859375 38.75 C-29.54317566 31.92905903 -25.55029408 28.21798872 -20.390625 24.06640625 C-19.93171875 23.71449219 -19.4728125 23.36257813 -19 23 C-20.12333615 26.6508425 -21.48235536 29.97061088 -23.1875 33.375 C-25.33116503 38.14405254 -25.34820192 40.94424281 -24 46 C-22.22423215 48.9173329 -20.76729662 50.5260815 -17.875 52.3125 C-12.07730151 53.69890616 -6.95936855 53.90970683 -1.5 51.375 C1.4365088 48.58531664 2.01529779 46.89700545 3 43 C3.10087538 39.68104016 3.10087538 39.68104016 2.75 36.1875 C2.64300781 34.87652344 2.53601562 33.56554687 2.42578125 32.21484375 C1.93895053 27.16293858 1.30089018 22.12972041 0.66552734 17.09472656 C-0.02718925 11.38080807 -0.22377804 5.75606844 0 0 Z " fill="#000000" transform="translate(33,354)"/>
<path d="M0 0 C26 0 26 0 38 2 C38 2.33 38 2.66 38 3 C30.70609246 3.96004081 23.70911797 3.98770675 16.375 3.5625 C11.239375 3.2840625 11.239375 3.2840625 6 3 C6 9.93 6 16.86 6 24 C14.25 24 22.5 24 31 24 C31 24.99 31 25.98 31 27 C22.75 27 14.5 27 6 27 C6 36.57 6 46.14 6 56 C16.89 56 27.78 56 39 56 C38.505 56.99 38.505 56.99 38 58 C30.28173775 59.54949962 22.33642522 59.11027277 14.5 59.0625 C7.3225 59.0315625 7.3225 59.0315625 0 59 C0 39.53 0 20.06 0 0 Z " fill="#000000" transform="translate(119,354)"/>
<path d="M0 0 C35.5 0 35.5 0 40 3 C40 3.66 40 4.32 40 5 C39.04222656 4.9278125 38.08445312 4.855625 37.09765625 4.78125 C27.03875558 4.06585405 17.08541819 3.91595485 7 4 C6.67 10.6 6.34 17.2 6 24 C7.44632812 23.97679687 8.89265625 23.95359375 10.3828125 23.9296875 C12.29686982 23.91092223 14.21093274 23.89272284 16.125 23.875 C17.07632812 23.85824219 18.02765625 23.84148437 19.0078125 23.82421875 C24.08583255 23.78895472 28.24487525 23.96666383 33 26 C33 26.33 33 26.66 33 27 C24.09 27 15.18 27 6 27 C6 36.57 6 46.14 6 56 C16.56 56 27.12 56 38 56 C38 56.66 38 57.32 38 58 C33.41443228 58.89663672 29.0829778 59.11633191 24.4140625 59.09765625 C22.48747803 59.09390991 22.48747803 59.09390991 20.52197266 59.09008789 C18.90597168 59.08098389 17.2899707 59.07187988 15.625 59.0625 C10.46875 59.041875 5.3125 59.02125 0 59 C0 39.53 0 20.06 0 0 Z " fill="#000000" transform="translate(361,354)"/>
<path d="M0 0 C5 2 5 2 12 6 C12 21.84 12 37.68 12 54 C17.94 53.34 23.88 52.68 30 52 C32.31 52 34.62 52 37 52 C37.495 54.97 37.495 54.97 38 58 C25.46 58 12.92 58 0 58 C0 38.86 0 19.72 0 0 Z M5 11 C4.16414221 18.02196703 3.84529941 24.93126033 3.875 32 C3.87113281 32.92039062 3.86726563 33.84078125 3.86328125 34.7890625 C3.87190994 40.91543147 4.27594135 46.91724761 5 53 C5.66 53 6.32 53 7 53 C7.02480683 47.98291378 7.04291052 42.96586365 7.05493164 37.94873047 C7.05994564 36.24364601 7.0667585 34.53856582 7.07543945 32.83349609 C7.08763385 30.37596581 7.09325775 27.91849262 7.09765625 25.4609375 C7.10281754 24.70444916 7.10797882 23.94796082 7.11329651 23.16854858 C7.1137333 19.00317437 6.81657038 15.08567741 6 11 C5.67 11 5.34 11 5 11 Z " fill="#000000" transform="translate(476,354)"/>
<path d="M0 0 C4.26837643 -0.04982839 8.536594 -0.08592015 12.80517578 -0.10986328 C14.25409906 -0.11985586 15.70300251 -0.13345453 17.15185547 -0.15087891 C32.93617811 -0.33580894 32.93617811 -0.33580894 39 2 C39.495 3.485 39.495 3.485 40 5 C28.78 4.34 17.56 3.68 6 3 C6 9.93 6 16.86 6 24 C14.25 24 22.5 24 31 24 C31 24.99 31 25.98 31 27 C23.08 27.33 15.16 27.66 7 28 C6.67 37.24 6.34 46.48 6 56 C16.56 56 27.12 56 38 56 C38 56.66 38 57.32 38 58 C33.41443228 58.89663672 29.0829778 59.11633191 24.4140625 59.09765625 C23.71227875 59.0962413 23.010495 59.09482635 22.28744507 59.09336853 C20.06658496 59.0878129 17.84582916 59.07526892 15.625 59.0625 C14.11067855 59.05747926 12.5963555 59.05291736 11.08203125 59.04882812 C7.38798748 59.03785807 3.69400394 59.02062449 0 59 C0.03029297 58.41210693 0.06058594 57.82421387 0.09179688 57.21850586 C1.06474245 38.03089656 0.98860368 19.1857474 0 0 Z " fill="#000000" transform="translate(585,354)"/>
<path d="M0 0 C28.41666667 0 28.41666667 0 34.6875 5.25 C36.42534843 8.89120623 36.71175989 11.01414462 36 15 C31.82124444 19.60734588 26.71377008 21.72718923 21 24 C22.0828125 25.175625 22.0828125 25.175625 23.1875 26.375 C28.75963393 33.16799473 31.56601092 41.22045139 34.375 49.4375 C34.65013428 50.23124023 34.92526855 51.02498047 35.20874023 51.84277344 C35.45696533 52.59461914 35.70519043 53.34646484 35.9609375 54.12109375 C36.18571777 54.7958374 36.41049805 55.47058105 36.64208984 56.16577148 C37 58 37 58 36 61 C27.68821356 51.23365093 21.93829124 38.45713055 19 26 C18.44570313 26.3609375 17.89140625 26.721875 17.3203125 27.09375 C16.59585938 27.5578125 15.87140625 28.021875 15.125 28.5 C14.40570312 28.9640625 13.68640625 29.428125 12.9453125 29.90625 C11 31 11 31 9 31 C6.50571817 36.75452421 6.77193297 42.23061917 6.875 48.375 C6.88853516 49.90833984 6.88853516 49.90833984 6.90234375 51.47265625 C6.9257957 53.98201522 6.95861645 56.49088336 7 59 C4.69 59 2.38 59 0 59 C0 39.53 0 20.06 0 0 Z M6 3 C6 10.59 6 18.18 6 26 C13.09723913 23.73991019 13.09723913 23.73991019 19.59765625 20.73828125 C20.33564453 20.34189453 21.07363281 19.94550781 21.83398438 19.53710938 C22.56939453 19.13298828 23.30480469 18.72886719 24.0625 18.3125 C24.83271484 17.89677734 25.60292969 17.48105469 26.39648438 17.05273438 C28.267784 16.0415352 30.13440534 15.02168617 32 14 C30.55345065 8.7845268 30.55345065 8.7845268 27 5 C20.23320739 2.14290979 13.24309973 2.8620362 6 3 Z " fill="#000000" transform="translate(699,354)"/>
</svg>
