<svg xmlns="http://www.w3.org/2000/svg" viewBox="0 0 780 200" width="780" height="200">
  <!-- PayPal Logo -->
  <g>
    <!-- Icon P (left) -->
    <path fill="#003087" d="M111.127,147.227l6.368-40.538l-14.223-0.326H68.217L87.582,16.221c0.382-2.421,1.851-4.443,3.829-5.258
      c0.966-0.392,1.98-0.589,3.001-0.589h114.476c24.084,0,40.626,5.011,49.138,14.882c4.059,4.636,6.649,9.477,7.897,14.794
      c1.315,5.611,1.361,12.298,0.133,20.483l-0.153,1.008v8.286l6.438,3.638c3.424,1.906,6.203,4.138,8.331,6.68
      c3.479,4.032,5.734,9.178,6.696,15.298c0.999,6.322,0.638,13.86-1.076,22.416c-1.853,9.51-5.104,17.794-9.662,24.619
      c-4.33,6.467-9.748,11.917-16.112,16.198c-5.971,4.017-13.046,7.106-21.025,9.187c-7.645,1.992-16.265,3.002-25.625,3.002H208.64
      c-6.407,0-12.631,2.306-17.477,6.483c-4.853,4.179-8.23,9.968-9.478,16.257l-0.677,3.668l-11.296,71.658l-0.51,2.626
      c-0.142,0.839-0.37,1.26-0.713,1.533c-0.338,0.273-0.888,0.429-1.176,0.429H111.127z"/>
    <path fill="#009cde" d="M280.935,48.358c-0.353,2.191-0.736,4.434-1.173,6.746c-15.14,77.771-67.002,104.609-133.181,104.609
      h-33.699c-7.859,0-14.508,5.638-15.719,13.395l-20.022,126.967l-4.884,31.004c-0.626,3.97,2.439,7.553,6.433,7.553h59.724
      c6.889,0,12.75-4.985,13.828-11.791l0.574-2.979l11.239-71.338l0.729-3.919c1.078-6.801,6.934-11.791,13.828-11.791h8.705
      c57.861,0,103.16-23.494,116.395-91.488c5.534-28.401,2.67-52.107-11.944-68.808C286.641,52.867,284.025,50.425,280.935,48.358z"/>
    <path fill="#012169" d="M265.226,41.658c-1.467-0.428-2.979-0.82-4.534-1.171c-1.56-0.351-3.163-0.663-4.815-0.934
      c-6.51-1.063-13.548-1.599-20.999-1.599H143.595c-2.037,0-3.98,0.534-5.654,1.471c-3.109,1.745-5.375,4.918-5.912,8.667
      l-17.362,110.043l-0.506,3.208c1.211-7.757,7.86-13.395,15.719-13.395h33.699c66.179,0,118.041-26.838,133.181-104.609
      c0.437-2.312,0.82-4.555,1.173-6.746C294.612,47.136,280.709,45.065,265.226,41.658z"/>
    
    <!-- Pay (dark blue) -->
    <path fill="#003087" d="M366.929,48.4h-48.331c-3.296,0-6.118,2.392-6.604,5.604L293.74,189.024c-0.391,2.477,1.468,4.714,3.968,4.714
      h23.077c3.296,0,6.118-2.392,6.604-5.604l5.271-33.406c0.486-3.212,3.308-5.604,6.604-5.604h15.3
      c31.853,0,50.251-15.417,55.045-45.933c2.167-13.358,0.094-23.852-6.166-31.17C397.157,53.896,384.422,48.4,366.929,48.4z
       M371.891,93.897c-2.644,17.354-15.895,17.354-28.72,17.354h-7.3l5.121-32.414c0.308-1.927,1.984-3.362,3.962-3.362h3.345
      c8.729,0,16.969,0,21.218,4.978C372.116,83.696,372.774,87.969,371.891,93.897z"/>
    
    <!-- a (dark blue) -->
    <path fill="#003087" d="M470.765,93.156h-23.156c-1.978,0-3.654,1.435-3.962,3.362l-1.024,6.475l-1.621-2.348
      c-5.019-7.279-16.203-9.714-27.366-9.714c-25.594,0-47.448,19.387-51.688,46.559c-2.209,13.563,0.935,26.527,8.631,35.593
      c7.073,8.33,17.163,11.795,29.194,11.795c20.628,0,32.065-13.267,32.065-13.267l-1.034,6.455
      c-0.391,2.477,1.468,4.714,3.968,4.714h20.857c3.296,0,6.118-2.392,6.604-5.604l12.522-79.305
      C475.146,95.393,473.287,93.156,470.765,93.156z M440.194,139.301c-2.236,13.235-12.738,22.136-26.126,22.136
      c-6.725,0-12.104-2.158-15.557-6.242c-3.425-4.052-4.716-9.831-3.636-16.277c2.091-13.118,12.783-22.31,25.909-22.31
      c6.582,0,11.924,2.192,15.444,6.337C439.764,127.124,441.131,132.936,440.194,139.301z"/>
    
    <!-- y (dark blue) -->
    <path fill="#003087" d="M593.993,93.156h-23.309c-2.228,0-4.292,1.102-5.567,2.949l-32.1,47.281l-13.612-45.432
      c-0.849-2.835-3.442-4.798-6.413-4.798h-22.872c-2.821,0-4.826,2.743-3.828,5.337l25.633,75.203l-24.104,34.035
      c-1.937,2.729-0.085,6.53,3.136,6.53h23.247c2.208,0,4.251-1.079,5.526-2.897l77.404-111.734
      C599.062,96.899,597.214,93.156,593.993,93.156z"/>
    
    <!-- Pal (light blue) -->
    <path fill="#009cde" d="M672.011,48.4h-48.331c-3.296,0-6.118,2.392-6.604,5.604l-18.254,115.02
      c-0.391,2.477,1.468,4.714,3.968,4.714h24.816c2.297,0,4.254-1.666,4.596-3.906l5.549-35.141
      c0.486-3.212,3.308-5.604,6.604-5.604h15.3c31.853,0,50.251-15.417,55.045-45.933c2.167-13.358,0.094-23.852-6.166-31.17
      C702.239,53.896,689.504,48.4,672.011,48.4z M676.973,93.897c-2.644,17.354-15.895,17.354-28.72,17.354h-7.3l5.121-32.414
      c0.308-1.927,1.984-3.362,3.962-3.362h3.345c8.729,0,16.969,0,21.218,4.978C677.198,83.696,677.856,87.969,676.973,93.897z"/>
    
    <!-- a (light blue) -->
    <path fill="#009cde" d="M775.847,93.156h-23.156c-1.978,0-3.654,1.435-3.962,3.362l-1.024,6.475l-1.621-2.348
      c-5.019-7.279-16.203-9.714-27.366-9.714c-25.594,0-47.448,19.387-51.688,46.559c-2.209,13.563,0.935,26.527,8.631,35.593
      c7.073,8.33,17.163,11.795,29.194,11.795c20.628,0,32.065-13.267,32.065-13.267l-1.034,6.455
      c-0.391,2.477,1.468,4.714,3.968,4.714h20.857c3.296,0,6.118-2.392,6.604-5.604l12.522-79.305
      C780.228,95.393,778.369,93.156,775.847,93.156z M745.276,139.301c-2.236,13.235-12.738,22.136-26.126,22.136
      c-6.725,0-12.104-2.158-15.557-6.242c-3.425-4.052-4.716-9.831-3.636-16.277c2.091-13.118,12.783-22.31,25.909-22.31
      c6.582,0,11.924,2.192,15.444,6.337C744.846,127.124,746.213,132.936,745.276,139.301z"/>
    
    <!-- l (light blue) -->
    <path fill="#009cde" d="M653.432,54.194L635.22,169.024c-0.391,2.477,1.468,4.714,3.968,4.714h19.947
      c3.296,0,6.118-2.392,6.604-5.604l19.566-123.738c0.391-2.477-1.468-4.714-3.968-4.714h-22.337
      C657.022,39.681,654.045,51.982,653.432,54.194z"/>
  </g>
</svg>
