<svg xmlns="http://www.w3.org/2000/svg" width="40" height="12" viewBox="0 0 534 148">
  <path fill="#253b80" d="M85 0L30 148h33l13-33h32c35 0 62-17 68-56 3-18-1-35-11-46C153 2 135 0 114 0H85zm45 56c-4 22-21 26-38 26H79l7-19h1c1 0 15 0 15 0 16 0 28-8 31-25 1-6 0-11-3-15-4-5-11-7-21-7H92l8-19h14c14 0 26 1 35 9 6 6 8 16 6 30z"/>
  <path fill="#179bd7" d="M259 0l-55 148h33l13-33h32c35 0 62-17 68-56 3-18-1-35-11-46-12-11-30-13-51-13h-29zm45 56c-4 22-21 26-38 26h-13l7-19h1c1 0 15 0 15 0 16 0 28-8 31-25 1-6 0-11-3-15-4-5-11-7-21-7h-14l8-19h14c14 0 26 1 35 9 6 6 8 16 6 30z"/>
  <path fill="#253b80" d="M380 56c-3 18-1 35 11 46 12 11 30 13 51 13h29l55-148h-33l-13 33h-32c-35 0-62 17-68 56zM425 30c4 5 11 7 21 7h14l-8 19h-1c-1 0-15 0-15 0-16 0-28 8-31 25-1 6 0 11 3 15 4 5 11 7 21 7h13l-7 19h-32c-35 0-62-17-68-56-3-18 1-35 11-46 12-11 30-13 51-13h29l-8 19h-14c-10 0-17 2-21 7z"/>
</svg>
