<svg xmlns="http://www.w3.org/2000/svg" viewBox="0 0 448 512" role="img">
  <linearGradient id="instagram-gradient" x1="0%" y1="100%" x2="100%" y2="0%">
    <stop offset="0%" stop-color="#f58529" />
    <stop offset="25%" stop-color="#feda77" />
    <stop offset="50%" stop-color="#dd2a7b" />
    <stop offset="75%" stop-color="#8134af" />
    <stop offset="100%" stop-color="#515bd4" />
  </linearGradient>
  <rect width="448" height="512" rx="120" fill="url(#instagram-gradient)" />
  <path fill="#fff" d="M224 151a105 105 0 1 0 105 105A105.12 105.12 0 0 0 224 151zm0 172a67 67 0 1 1 67-67 67.09 67.09 0 0 1-67 67zm135-177a24 24 0 1 1-24-24 24 24 0 0 1 24 24zm63.5 24.5c-1.4-30.2-8.1-56.9-29.6-78.5S346.7 72.9 316.5 71.5C286 69.8 162 69.8 131.5 71.5c-30.2 1.4-56.9 8.1-78.5 29.6S24.9 133.3 23.5 163.5C21.8 194 21.8 318 23.5 348.5c1.4 30.2 8.1 56.9 29.6 78.5s48.3 28.2 78.5 29.6c30.5 1.7 154.5 1.7 185 0 30.2-1.4 56.9-8.1 78.5-29.6s28.2-48.3 29.6-78.5c1.7-30.5 1.7-154.5 0-185zM398 352a74.34 74.34 0 0 1-41.7 41.7c-28.9 11.5-97.6 8.9-132.3 8.9s-103.4 2.6-132.3-8.9A74.34 74.34 0 0 1 50 352c-11.5-28.9-8.9-97.6-8.9-132.3S38.6 116.3 50.1 87.4A74.34 74.34 0 0 1 91.8 45.7C120.7 34.2 189.4 36.8 224 36.8s103.4-2.6 132.3 8.9a74.34 74.34 0 0 1 41.7 41.7c11.5 28.9 8.9 97.6 8.9 132.3s2.6 103.4-8.9 132.3z" />
</svg>
